<?xml version="1.0" encoding="UTF-8"?>
<!DOCTYPE svg PUBLIC "-//W3C//DTD SVG 1.1//EN" "http://www.w3.org/Graphics/SVG/1.1/DTD/svg11.dtd">
<svg xmlns="http://www.w3.org/2000/svg" version="1.1" width="350px" height="368px" style="shape-rendering:geometricPrecision; text-rendering:geometricPrecision; image-rendering:optimizeQuality; fill-rule:evenodd; clip-rule:evenodd" xmlns:xlink="http://www.w3.org/1999/xlink">
<g><path style="opacity:0.957" fill="#5ba996" d="M 159.5,-0.5 C 163.833,-0.5 168.167,-0.5 172.5,-0.5C 185.182,2.66769 194.515,10.1677 200.5,22C 205.088,23.4843 209.755,24.651 214.5,25.5C 214.5,37.5 214.5,49.5 214.5,61.5C 209.263,59.8575 203.93,58.5241 198.5,57.5C 193.3,62.1852 187.634,66.3519 181.5,70C 163.688,76.5716 148.521,72.7382 136,58.5C 124.994,38.7071 127.827,21.2071 144.5,6C 149.367,3.22592 154.367,1.05926 159.5,-0.5 Z M 161.5,24.5 C 169.54,22.9352 175.04,25.9352 178,33.5C 177.722,45.8995 171.555,50.3995 159.5,47C 151.142,38.6561 151.809,31.1561 161.5,24.5 Z"/></g>
<g><path style="opacity:0.961" fill="#59a798" d="M 214.5,25.5 C 217.167,26.1667 219.833,26.8333 222.5,27.5C 222.5,39.8333 222.5,52.1667 222.5,64.5C 219.833,63.5 217.167,62.5 214.5,61.5C 214.5,49.5 214.5,37.5 214.5,25.5 Z"/></g>
<g><path style="opacity:0.965" fill="#56a59b" d="M 222.5,27.5 C 224.987,28.3228 227.321,29.3228 229.5,30.5C 229.5,42.8333 229.5,55.1667 229.5,67.5C 227.287,66.2271 224.954,65.2271 222.5,64.5C 222.5,52.1667 222.5,39.8333 222.5,27.5 Z"/></g>
<g><path style="opacity:0.969" fill="#53a39d" d="M 229.5,30.5 C 231.786,30.595 233.786,31.2616 235.5,32.5C 235.5,44.8333 235.5,57.1667 235.5,69.5C 233.5,68.8333 231.5,68.1667 229.5,67.5C 229.5,55.1667 229.5,42.8333 229.5,30.5 Z"/></g>
<g><path style="opacity:0.968" fill="#52a29e" d="M 235.5,32.5 C 236.492,32.3284 237.158,32.6618 237.5,33.5C 237.5,45.8333 237.5,58.1667 237.5,70.5C 236.508,70.6716 235.842,70.3382 235.5,69.5C 235.5,57.1667 235.5,44.8333 235.5,32.5 Z"/></g>
<g><path style="opacity:0.815" fill="#3087bf" d="M 111.5,59.5 C 111.5,62.8333 111.5,66.1667 111.5,69.5C 109.5,70.5 107.5,71.5 105.5,72.5C 105.5,59.8333 105.5,47.1667 105.5,34.5C 106.358,38.4068 106.858,43.0735 107,48.5C 108.019,52.3968 109.519,56.0635 111.5,59.5 Z"/></g>
<g><path style="opacity:0.966" fill="#50a0a1" d="M 237.5,33.5 C 240.38,33.9402 243.046,34.9402 245.5,36.5C 245.5,49.5 245.5,62.5 245.5,75.5C 242.46,74.3197 239.794,72.653 237.5,70.5C 237.5,58.1667 237.5,45.8333 237.5,33.5 Z"/></g>
<g><path style="opacity:0.97" fill="#3289bc" d="M 105.5,34.5 C 105.5,47.1667 105.5,59.8333 105.5,72.5C 104.609,73.1098 103.609,73.4431 102.5,73.5C 102.5,60.8333 102.5,48.1667 102.5,35.5C 103.391,34.8902 104.391,34.5569 105.5,34.5 Z"/></g>
<g><path style="opacity:0.96" fill="#368bb9" d="M 102.5,35.5 C 102.5,48.1667 102.5,60.8333 102.5,73.5C 100.469,75.5224 98.1354,77.1891 95.5,78.5C 95.5,65.1667 95.5,51.8333 95.5,38.5C 97.7128,37.2271 100.046,36.2271 102.5,35.5 Z"/></g>
<g><path style="opacity:0.96" fill="#4d9ea4" d="M 245.5,36.5 C 248.987,37.4076 251.987,39.0743 254.5,41.5C 254.5,54.8333 254.5,68.1667 254.5,81.5C 251.477,79.4667 248.477,77.4667 245.5,75.5C 245.5,62.5 245.5,49.5 245.5,36.5 Z"/></g>
<g><path style="opacity:0.965" fill="#398eb6" d="M 95.5,38.5 C 95.5,51.8333 95.5,65.1667 95.5,78.5C 94.1667,79.5 92.8333,80.5 91.5,81.5C 91.5,67.8333 91.5,54.1667 91.5,40.5C 92.8333,39.8333 94.1667,39.1667 95.5,38.5 Z"/></g>
<g><path style="opacity:0.963" fill="#3d91b3" d="M 91.5,40.5 C 91.5,54.1667 91.5,67.8333 91.5,81.5C 90.078,82.925 88.4113,83.925 86.5,84.5C 86.5,70.8333 86.5,57.1667 86.5,43.5C 88.0009,42.2485 89.6675,41.2485 91.5,40.5 Z"/></g>
<g><path style="opacity:0.971" fill="#4b9ca5" d="M 254.5,41.5 C 255.609,41.5569 256.609,41.8902 257.5,42.5C 257.5,56.1667 257.5,69.8333 257.5,83.5C 256.29,83.0679 255.29,82.4013 254.5,81.5C 254.5,68.1667 254.5,54.8333 254.5,41.5 Z"/></g>
<g><path style="opacity:0.963" fill="#499ba7" d="M 257.5,42.5 C 259.332,43.2485 260.999,44.2485 262.5,45.5C 262.5,59.5 262.5,73.5 262.5,87.5C 260.246,86.8763 258.579,85.543 257.5,83.5C 257.5,69.8333 257.5,56.1667 257.5,42.5 Z"/></g>
<g><path style="opacity:0.961" fill="#4093af" d="M 86.5,43.5 C 86.5,57.1667 86.5,70.8333 86.5,84.5C 85.4154,86.5869 83.7488,87.9202 81.5,88.5C 81.5,74.5 81.5,60.5 81.5,46.5C 82.9649,45.2632 84.6316,44.2632 86.5,43.5 Z"/></g>
<g><path style="opacity:0.955" fill="#4698aa" d="M 262.5,45.5 C 266.336,47.5836 270.003,49.917 273.5,52.5C 273.5,67.8333 273.5,83.1667 273.5,98.5C 269.5,95.1667 265.833,91.5 262.5,87.5C 262.5,73.5 262.5,59.5 262.5,45.5 Z"/></g>
<g><path style="opacity:0.965" fill="#4396ad" d="M 81.5,46.5 C 81.5,60.5 81.5,74.5 81.5,88.5C 80.8333,89.8333 79.8333,90.8333 78.5,91.5C 78.5,77.1667 78.5,62.8333 78.5,48.5C 79.2905,47.5987 80.2905,46.9321 81.5,46.5 Z"/></g>
<g><path style="opacity:0.962" fill="#4698aa" d="M 78.5,48.5 C 78.5,62.8333 78.5,77.1667 78.5,91.5C 76.8333,93.8333 74.8333,95.8333 72.5,97.5C 72.5,82.5 72.5,67.5 72.5,52.5C 74.2048,50.8079 76.2048,49.4746 78.5,48.5 Z"/></g>
<g><path style="opacity:0.966" fill="#499ba7" d="M 72.5,52.5 C 72.5,67.5 72.5,82.5 72.5,97.5C 71.1667,99.5 69.5,101.167 67.5,102.5C 67.5,87.1667 67.5,71.8333 67.5,56.5C 68.9448,54.9373 70.6115,53.604 72.5,52.5 Z"/></g>
<g><path style="opacity:0.955" fill="#4396ad" d="M 273.5,52.5 C 275.191,53.8637 276.858,55.197 278.5,56.5C 278.5,72.1667 278.5,87.8333 278.5,103.5C 276.5,102.167 274.833,100.5 273.5,98.5C 273.5,83.1667 273.5,67.8333 273.5,52.5 Z"/></g>
<g><path style="opacity:0.959" fill="#4d9ea3" d="M 67.5,56.5 C 67.5,71.8333 67.5,87.1667 67.5,102.5C 66.2141,105.117 64.5475,107.45 62.5,109.5C 62.5,93.1667 62.5,76.8333 62.5,60.5C 63.5794,58.457 65.246,57.1237 67.5,56.5 Z"/></g>
<g><path style="opacity:0.967" fill="#4295ae" d="M 278.5,56.5 C 279.5,56.8333 280.167,57.5 280.5,58.5C 280.5,74.1667 280.5,89.8333 280.5,105.5C 279.5,105.167 278.833,104.5 278.5,103.5C 278.5,87.8333 278.5,72.1667 278.5,56.5 Z"/></g>
<g><path style="opacity:0.962" fill="#4093b0" d="M 280.5,58.5 C 283.786,60.4512 286.786,62.7846 289.5,65.5C 289.5,83.1667 289.5,100.833 289.5,118.5C 286.117,114.447 283.117,110.114 280.5,105.5C 280.5,89.8333 280.5,74.1667 280.5,58.5 Z"/></g>
<g><path style="opacity:0.764" fill="#2c84c2" d="M 111.5,59.5 C 112.488,60.795 113.488,62.1283 114.5,63.5C 114.5,64.8333 114.5,66.1667 114.5,67.5C 113.71,68.4013 112.71,69.0679 111.5,69.5C 111.5,66.1667 111.5,62.8333 111.5,59.5 Z"/></g>
<g><path style="opacity:0.958" fill="#50a0a0" d="M 62.5,60.5 C 62.5,76.8333 62.5,93.1667 62.5,109.5C 61.2993,111.909 59.6326,113.909 57.5,115.5C 57.5,98.5 57.5,81.5 57.5,64.5C 58.5794,62.457 60.246,61.1237 62.5,60.5 Z"/></g>
<g><path style="opacity:0.434" fill="#2a82c5" d="M 114.5,63.5 C 118.265,65.1916 118.265,66.5249 114.5,67.5C 114.5,66.1667 114.5,64.8333 114.5,63.5 Z"/></g>
<g><path style="opacity:0.963" fill="#53a39d" d="M 57.5,64.5 C 57.5,81.5 57.5,98.5 57.5,115.5C 56.8897,117.434 55.8897,119.101 54.5,120.5C 54.5,102.833 54.5,85.1667 54.5,67.5C 55.1667,66.1667 56.1667,65.1667 57.5,64.5 Z"/></g>
<g><path style="opacity:0.954" fill="#3c91b3" d="M 289.5,65.5 C 293.167,68.5 296.5,71.8333 299.5,75.5C 299.5,95.8333 299.5,116.167 299.5,136.5C 296.182,130.535 292.849,124.535 289.5,118.5C 289.5,100.833 289.5,83.1667 289.5,65.5 Z"/></g>
<g><path style="opacity:0.964" fill="#56a59b" d="M 54.5,67.5 C 54.5,85.1667 54.5,102.833 54.5,120.5C 53.4161,123.004 52.0828,125.337 50.5,127.5C 50.5,108.833 50.5,90.1667 50.5,71.5C 51.5,69.8333 52.8333,68.5 54.5,67.5 Z"/></g>
<g><path style="opacity:0.96" fill="#59a798" d="M 50.5,71.5 C 50.5,90.1667 50.5,108.833 50.5,127.5C 49.6743,130.485 48.341,133.151 46.5,135.5C 46.5,115.5 46.5,95.5 46.5,75.5C 47.5,73.8333 48.8333,72.5 50.5,71.5 Z"/></g>
<g><path style="opacity:0.965" fill="#5ba996" d="M 46.5,75.5 C 46.5,95.5 46.5,115.5 46.5,135.5C 30.8599,171.785 29.8599,208.451 43.5,245.5C 44.5,245.5 45.5,245.5 46.5,245.5C 46.5,253.833 46.5,262.167 46.5,270.5C 34.0963,270.252 29.5963,276.252 33,288.5C 36.3149,293.107 40.8149,295.107 46.5,294.5C 46.5,302.833 46.5,311.167 46.5,319.5C 22.9041,318.237 9.57081,305.903 6.5,282.5C 6.89308,274.993 8.89308,267.993 12.5,261.5C 6.11553,244.547 1.78219,227.213 -0.5,209.5C -0.5,199.167 -0.5,188.833 -0.5,178.5C 3.54049,138.759 19.2072,104.426 46.5,75.5 Z"/></g>
<g><path style="opacity:0.962" fill="#398eb6" d="M 299.5,75.5 C 301.471,77.8082 303.471,80.1415 305.5,82.5C 305.5,105.5 305.5,128.5 305.5,151.5C 303.129,146.735 301.129,141.735 299.5,136.5C 299.5,116.167 299.5,95.8333 299.5,75.5 Z"/></g>
<g><path style="opacity:0.965" fill="#368bb9" d="M 305.5,82.5 C 310.601,87.9359 314.934,93.9359 318.5,100.5C 318.5,133.5 318.5,166.5 318.5,199.5C 316.254,199.936 314.087,200.603 312,201.5C 311.963,184.533 309.796,167.867 305.5,151.5C 305.5,128.5 305.5,105.5 305.5,82.5 Z"/></g>
<g><path style="opacity:0.987" fill="#338abc" d="M 318.5,100.5 C 319.401,101.29 320.068,102.29 320.5,103.5C 320.5,135.5 320.5,167.5 320.5,199.5C 319.833,199.5 319.167,199.5 318.5,199.5C 318.5,166.5 318.5,133.5 318.5,100.5 Z"/></g>
<g><path style="opacity:0.972" fill="#52a29f" d="M 171.5,103.5 C 171.5,115.5 171.5,127.5 171.5,139.5C 170.391,139.557 169.391,139.89 168.5,140.5C 168.5,128.5 168.5,116.5 168.5,104.5C 169.391,103.89 170.391,103.557 171.5,103.5 Z"/></g>
<g><path style="opacity:0.973" fill="#50a0a0" d="M 171.5,103.5 C 173.379,104.341 175.379,104.675 177.5,104.5C 177.5,116.5 177.5,128.5 177.5,140.5C 175.379,140.675 173.379,140.341 171.5,139.5C 171.5,127.5 171.5,115.5 171.5,103.5 Z"/></g>
<g><path style="opacity:0.982" fill="#3288bc" d="M 320.5,103.5 C 322.083,105.663 323.416,107.996 324.5,110.5C 324.5,140.167 324.5,169.833 324.5,199.5C 323.167,199.5 321.833,199.5 320.5,199.5C 320.5,167.5 320.5,135.5 320.5,103.5 Z"/></g>
<g><path style="opacity:0.967" fill="#59a798" d="M 157.5,104.5 C 157.5,116.833 157.5,129.167 157.5,141.5C 155.5,142.167 153.5,142.833 151.5,143.5C 151.5,131.167 151.5,118.833 151.5,106.5C 153.374,105.715 155.374,105.048 157.5,104.5 Z"/></g>
<g><path style="opacity:0.969" fill="#56a59b" d="M 157.5,104.5 C 159.5,104.5 161.5,104.5 163.5,104.5C 163.5,116.5 163.5,128.5 163.5,140.5C 161.5,140.833 159.5,141.167 157.5,141.5C 157.5,129.167 157.5,116.833 157.5,104.5 Z"/></g>
<g><path style="opacity:0.974" fill="#53a39d" d="M 163.5,104.5 C 165.167,104.5 166.833,104.5 168.5,104.5C 168.5,116.5 168.5,128.5 168.5,140.5C 166.833,140.5 165.167,140.5 163.5,140.5C 163.5,128.5 163.5,116.5 163.5,104.5 Z"/></g>
<g><path style="opacity:0.968" fill="#4d9da4" d="M 177.5,104.5 C 180.609,104.264 183.609,104.597 186.5,105.5C 186.5,117.833 186.5,130.167 186.5,142.5C 183.63,141.366 180.63,140.7 177.5,140.5C 177.5,128.5 177.5,116.5 177.5,104.5 Z"/></g>
<g><path style="opacity:0.968" fill="#499ba7" d="M 186.5,105.5 C 188.861,105.674 191.194,106.007 193.5,106.5C 193.5,119.167 193.5,131.833 193.5,144.5C 191.254,143.545 188.921,142.878 186.5,142.5C 186.5,130.167 186.5,117.833 186.5,105.5 Z"/></g>
<g><path style="opacity:0.963" fill="#5aa997" d="M 151.5,106.5 C 151.5,118.833 151.5,131.167 151.5,143.5C 124.141,155.537 111.641,176.537 114,206.5C 116.863,223.015 125.03,236.181 138.5,246C 131.972,255.029 125.638,264.196 119.5,273.5C 118.635,274.583 117.635,274.749 116.5,274C 85.596,249.996 73.096,218.496 79,179.5C 88.0393,140.049 112.206,115.716 151.5,106.5 Z"/></g>
<g><path style="opacity:0.966" fill="#4698aa" d="M 193.5,106.5 C 196.579,107.304 199.579,108.304 202.5,109.5C 202.5,122.833 202.5,136.167 202.5,149.5C 199.661,147.58 196.661,145.913 193.5,144.5C 193.5,131.833 193.5,119.167 193.5,106.5 Z"/></g>
<g><path style="opacity:0.964" fill="#4396ad" d="M 202.5,109.5 C 204.579,109.971 206.579,110.637 208.5,111.5C 208.5,125.5 208.5,139.5 208.5,153.5C 206.5,152.167 204.5,150.833 202.5,149.5C 202.5,136.167 202.5,122.833 202.5,109.5 Z"/></g>
<g><path style="opacity:0.973" fill="#2f86bf" d="M 324.5,110.5 C 329.508,118.189 333.175,126.522 335.5,135.5C 335.5,157.833 335.5,180.167 335.5,202.5C 331.981,201.036 328.314,200.036 324.5,199.5C 324.5,169.833 324.5,140.167 324.5,110.5 Z"/></g>
<g><path style="opacity:0.959" fill="#4093b0" d="M 208.5,111.5 C 211.167,112.833 213.833,114.167 216.5,115.5C 216.5,130.833 216.5,146.167 216.5,161.5C 213.5,159.167 210.833,156.5 208.5,153.5C 208.5,139.5 208.5,125.5 208.5,111.5 Z"/></g>
<g><path style="opacity:0.962" fill="#3c90b3" d="M 216.5,115.5 C 219.167,117.167 221.833,118.833 224.5,120.5C 224.5,138.5 224.5,156.5 224.5,174.5C 221.868,170.189 219.201,165.856 216.5,161.5C 216.5,146.167 216.5,130.833 216.5,115.5 Z"/></g>
<g><path style="opacity:0.95" fill="#398eb6" d="M 224.5,120.5 C 226.54,122.177 228.54,123.844 230.5,125.5C 230.5,173.833 230.5,222.167 230.5,270.5C 228.772,272.226 226.772,273.559 224.5,274.5C 224.5,256.5 224.5,238.5 224.5,220.5C 229.8,205.18 229.8,189.846 224.5,174.5C 224.5,156.5 224.5,138.5 224.5,120.5 Z"/></g>
<g><path style="opacity:0.986" fill="#368bb9" d="M 230.5,125.5 C 235.167,128.167 238.833,131.833 241.5,136.5C 241.5,177.5 241.5,218.5 241.5,259.5C 238.167,263.5 234.5,267.167 230.5,270.5C 230.5,222.167 230.5,173.833 230.5,125.5 Z"/></g>
<g><path style="opacity:0.956" fill="#2c84c2" d="M 335.5,135.5 C 338.475,141.768 340.475,148.435 341.5,155.5C 341.5,172.167 341.5,188.833 341.5,205.5C 339.784,203.975 337.784,202.975 335.5,202.5C 335.5,180.167 335.5,157.833 335.5,135.5 Z"/></g>
<g><path style="opacity:0.983" fill="#3288bc" d="M 241.5,136.5 C 243.89,137.891 245.557,139.891 246.5,142.5C 246.5,179.5 246.5,216.5 246.5,253.5C 244.823,255.54 243.156,257.54 241.5,259.5C 241.5,218.5 241.5,177.5 241.5,136.5 Z"/></g>
<g><path style="opacity:0.974" fill="#2f86bf" d="M 246.5,142.5 C 250.251,146.995 253.251,151.995 255.5,157.5C 255.5,184.167 255.5,210.833 255.5,237.5C 253.509,243.489 250.509,248.823 246.5,253.5C 246.5,216.5 246.5,179.5 246.5,142.5 Z"/></g>
<g><path style="opacity:0.827" fill="#2a82c4" d="M 341.5,155.5 C 344.604,168.004 346.27,180.838 346.5,194C 346.439,198.595 345.772,203.095 344.5,207.5C 343.482,206.807 342.482,206.141 341.5,205.5C 341.5,188.833 341.5,172.167 341.5,155.5 Z"/></g>
<g><path style="opacity:0.954" fill="#2c84c2" d="M 255.5,157.5 C 258.668,162.667 260.668,168.334 261.5,174.5C 261.5,190.167 261.5,205.833 261.5,221.5C 260.464,227.285 258.464,232.618 255.5,237.5C 255.5,210.833 255.5,184.167 255.5,157.5 Z"/></g>
<g><path style="opacity:0.941" fill="#5ba996" d="M 168.5,171.5 C 168.5,187.5 168.5,203.5 168.5,219.5C 151.981,214.474 145.815,203.474 150,186.5C 153.909,178.762 160.075,173.762 168.5,171.5 Z"/></g>
<g><path style="opacity:0.969" fill="#58a699" d="M 168.5,171.5 C 169.167,171.5 169.833,171.5 170.5,171.5C 170.5,187.5 170.5,203.5 170.5,219.5C 169.833,219.5 169.167,219.5 168.5,219.5C 168.5,203.5 168.5,187.5 168.5,171.5 Z"/></g>
<g><path style="opacity:0.977" fill="#54a49c" d="M 170.5,171.5 C 171.167,171.5 171.833,171.5 172.5,171.5C 172.5,187.5 172.5,203.5 172.5,219.5C 171.833,219.5 171.167,219.5 170.5,219.5C 170.5,203.5 170.5,187.5 170.5,171.5 Z"/></g>
<g><path style="opacity:0.976" fill="#50a0a1" d="M 172.5,171.5 C 173.167,171.5 173.833,171.5 174.5,171.5C 174.5,187.5 174.5,203.5 174.5,219.5C 173.833,219.5 173.167,219.5 172.5,219.5C 172.5,203.5 172.5,187.5 172.5,171.5 Z"/></g>
<g><path style="opacity:0.968" fill="#4c9da4" d="M 174.5,171.5 C 175.492,171.328 176.158,171.662 176.5,172.5C 176.5,188.167 176.5,203.833 176.5,219.5C 175.833,219.5 175.167,219.5 174.5,219.5C 174.5,203.5 174.5,187.5 174.5,171.5 Z"/></g>
<g><path style="opacity:0.985" fill="#499ba7" d="M 176.5,172.5 C 177.167,172.5 177.833,172.5 178.5,172.5C 178.5,187.833 178.5,203.167 178.5,218.5C 177.833,218.833 177.167,219.167 176.5,219.5C 176.5,203.833 176.5,188.167 176.5,172.5 Z"/></g>
<g><path style="opacity:0.972" fill="#4698aa" d="M 178.5,172.5 C 179.492,172.328 180.158,172.662 180.5,173.5C 180.5,188.5 180.5,203.5 180.5,218.5C 179.833,218.5 179.167,218.5 178.5,218.5C 178.5,203.167 178.5,187.833 178.5,172.5 Z"/></g>
<g><path style="opacity:0.965" fill="#4094af" d="M 180.5,173.5 C 182.38,173.229 183.713,173.896 184.5,175.5C 184.5,189.167 184.5,202.833 184.5,216.5C 183.167,217.167 181.833,217.833 180.5,218.5C 180.5,203.5 180.5,188.5 180.5,173.5 Z"/></g>
<g><path style="opacity:0.799" fill="#2a82c5" d="M 261.5,174.5 C 263.911,181.84 264.911,189.506 264.5,197.5C 264.884,205.813 263.884,213.813 261.5,221.5C 261.5,205.833 261.5,190.167 261.5,174.5 Z"/></g>
<g><path style="opacity:0.96" fill="#3b90b4" d="M 184.5,175.5 C 186.027,175.427 187.027,176.094 187.5,177.5C 187.5,189.5 187.5,201.5 187.5,213.5C 186.833,214.833 185.833,215.833 184.5,216.5C 184.5,202.833 184.5,189.167 184.5,175.5 Z"/></g>
<g><path style="opacity:0.954" fill="#368cb9" d="M 187.5,177.5 C 188.833,178.167 189.833,179.167 190.5,180.5C 190.5,190.5 190.5,200.5 190.5,210.5C 190.5,212.5 189.5,213.5 187.5,213.5C 187.5,201.5 187.5,189.5 187.5,177.5 Z"/></g>
<g><path style="opacity:0.887" fill="#3087be" d="M 190.5,180.5 C 192.669,182.34 194.002,184.674 194.5,187.5C 194.5,192.833 194.5,198.167 194.5,203.5C 194.445,206.614 193.112,208.948 190.5,210.5C 190.5,200.5 190.5,190.5 190.5,180.5 Z"/></g>
<g><path style="opacity:0.58" fill="#2a82c5" d="M 194.5,187.5 C 197.096,192.849 197.096,198.183 194.5,203.5C 194.5,198.167 194.5,192.833 194.5,187.5 Z"/></g>
<g><path style="opacity:0.956" fill="#368cb9" d="M 314.5,220.5 C 314.5,228.5 314.5,236.5 314.5,244.5C 304.366,245.131 299.866,250.464 301,260.5C 303.38,266.611 307.88,269.611 314.5,269.5C 314.5,277.5 314.5,285.5 314.5,293.5C 309.554,300.779 303.887,307.446 297.5,313.5C 297.5,283.5 297.5,253.5 297.5,223.5C 302.135,221.253 307.135,219.919 312.5,219.5C 313.416,219.543 314.083,219.876 314.5,220.5 Z"/></g>
<g><path style="opacity:0.949" fill="#3c90b3" d="M 224.5,220.5 C 224.5,238.5 224.5,256.5 224.5,274.5C 223.685,275.837 222.518,276.837 221,277.5C 218.991,275.478 217.491,273.145 216.5,270.5C 216.5,258.167 216.5,245.833 216.5,233.5C 219.432,229.298 222.098,224.965 224.5,220.5 Z"/></g>
<g><path style="opacity:0.969" fill="#338abc" d="M 314.5,220.5 C 315.167,220.5 315.833,220.5 316.5,220.5C 316.5,228.833 316.5,237.167 316.5,245.5C 315.833,245.167 315.167,244.833 314.5,244.5C 314.5,236.5 314.5,228.5 314.5,220.5 Z"/></g>
<g><path style="opacity:0.951" fill="#3288bc" d="M 316.5,220.5 C 318.415,220.216 320.081,220.549 321.5,221.5C 321.5,230.167 321.5,238.833 321.5,247.5C 319.833,246.833 318.167,246.167 316.5,245.5C 316.5,237.167 316.5,228.833 316.5,220.5 Z"/></g>
<g><path style="opacity:0.964" fill="#2f86bf" d="M 321.5,221.5 C 327.016,222.258 331.683,224.591 335.5,228.5C 335.5,247.5 335.5,266.5 335.5,285.5C 331.431,288.868 326.764,291.201 321.5,292.5C 321.5,283.5 321.5,274.5 321.5,265.5C 325.44,259.567 325.44,253.567 321.5,247.5C 321.5,238.833 321.5,230.167 321.5,221.5 Z"/></g>
<g><path style="opacity:0.986" fill="#398eb6" d="M 297.5,223.5 C 297.5,253.5 297.5,283.5 297.5,313.5C 295.167,316.5 292.5,319.167 289.5,321.5C 289.5,290.5 289.5,259.5 289.5,228.5C 291.629,226.05 294.296,224.383 297.5,223.5 Z"/></g>
<g><path style="opacity:0.962" fill="#3c91b3" d="M 289.5,228.5 C 289.5,259.5 289.5,290.5 289.5,321.5C 285.485,325.513 281.152,329.179 276.5,332.5C 276.5,317.167 276.5,301.833 276.5,286.5C 278.091,283.569 280.091,280.902 282.5,278.5C 273.954,265.132 273.454,251.466 281,237.5C 283.334,234 286.168,231 289.5,228.5 Z"/></g>
<g><path style="opacity:0.96" fill="#2c84c2" d="M 335.5,228.5 C 339.311,230.436 341.978,233.436 343.5,237.5C 343.5,250.5 343.5,263.5 343.5,276.5C 341.547,280.12 338.881,283.12 335.5,285.5C 335.5,266.5 335.5,247.5 335.5,228.5 Z"/></g>
<g><path style="opacity:0.922" fill="#3f93b0" d="M 216.5,233.5 C 216.5,245.833 216.5,258.167 216.5,270.5C 213.084,266.677 210.418,262.343 208.5,257.5C 208.5,252.5 208.5,247.5 208.5,242.5C 211.195,239.474 213.862,236.474 216.5,233.5 Z"/></g>
<g><path style="opacity:0.818" fill="#2a82c4" d="M 343.5,237.5 C 344.79,238.058 345.623,239.058 346,240.5C 347.103,243.98 348.269,247.313 349.5,250.5C 349.5,254.833 349.5,259.167 349.5,263.5C 348.277,268.16 346.277,272.494 343.5,276.5C 343.5,263.5 343.5,250.5 343.5,237.5 Z"/></g>
<g><path style="opacity:0.755" fill="#4396ad" d="M 208.5,242.5 C 208.5,247.5 208.5,252.5 208.5,257.5C 206.189,254.233 203.856,250.9 201.5,247.5C 203.568,245.427 205.901,243.761 208.5,242.5 Z"/></g>
<g><path style="opacity:0.948" fill="#58a799" d="M 46.5,245.5 C 48.099,245.232 49.4324,245.566 50.5,246.5C 50.5,254.833 50.5,263.167 50.5,271.5C 49.1667,271.167 47.8333,270.833 46.5,270.5C 46.5,262.167 46.5,253.833 46.5,245.5 Z"/></g>
<g><path style="opacity:0.947" fill="#56a59b" d="M 50.5,246.5 C 52.099,246.232 53.4324,246.566 54.5,247.5C 54.5,256.833 54.5,266.167 54.5,275.5C 52.8333,274.5 51.5,273.167 50.5,271.5C 50.5,263.167 50.5,254.833 50.5,246.5 Z"/></g>
<g><path style="opacity:0.932" fill="#53a39d" d="M 54.5,247.5 C 55.9587,247.433 57.2921,247.766 58.5,248.5C 58.5,270.833 58.5,293.167 58.5,315.5C 57.4863,316.674 56.153,317.34 54.5,317.5C 54.5,307.833 54.5,298.167 54.5,288.5C 55.8333,284.167 55.8333,279.833 54.5,275.5C 54.5,266.167 54.5,256.833 54.5,247.5 Z"/></g>
<g><path style="opacity:0.982" fill="#50a0a0" d="M 58.5,248.5 C 59.8333,249.167 61.1667,249.833 62.5,250.5C 62.5,271.5 62.5,292.5 62.5,313.5C 61.4863,314.674 60.153,315.34 58.5,315.5C 58.5,293.167 58.5,270.833 58.5,248.5 Z"/></g>
<g><path style="opacity:0.975" fill="#4d9ea3" d="M 62.5,250.5 C 64.3885,251.604 66.0552,252.937 67.5,254.5C 67.5,273.167 67.5,291.833 67.5,310.5C 66.078,311.925 64.4113,312.925 62.5,313.5C 62.5,292.5 62.5,271.5 62.5,250.5 Z"/></g>
<g><path style="opacity:0.957" fill="#499ba7" d="M 67.5,254.5 C 69.5,255.833 71.1667,257.5 72.5,259.5C 72.5,274.5 72.5,289.5 72.5,304.5C 71.5806,307.089 69.914,309.089 67.5,310.5C 67.5,291.833 67.5,273.167 67.5,254.5 Z"/></g>
<g><path style="opacity:0.929" fill="#4698aa" d="M 72.5,259.5 C 75.5402,262.914 77.5402,266.914 78.5,271.5C 78.5,278.833 78.5,286.167 78.5,293.5C 77.7803,297.945 75.7803,301.612 72.5,304.5C 72.5,289.5 72.5,274.5 72.5,259.5 Z"/></g>
<g><path style="opacity:0.951" fill="#3288bc" d="M 321.5,265.5 C 321.5,274.5 321.5,283.5 321.5,292.5C 319.883,293.038 318.216,293.371 316.5,293.5C 316.5,285.167 316.5,276.833 316.5,268.5C 318.332,267.752 319.999,266.752 321.5,265.5 Z"/></g>
<g><path style="opacity:0.95" fill="#338abc" d="M 316.5,268.5 C 316.5,276.833 316.5,285.167 316.5,293.5C 315.833,293.5 315.167,293.5 314.5,293.5C 314.5,285.5 314.5,277.5 314.5,269.5C 314.842,268.662 315.508,268.328 316.5,268.5 Z"/></g>
<g><path style="opacity:0.599" fill="#4396ad" d="M 78.5,271.5 C 81.1168,278.824 81.1168,286.157 78.5,293.5C 78.5,286.167 78.5,278.833 78.5,271.5 Z"/></g>
<g><path style="opacity:0.959" fill="#4093b0" d="M 276.5,286.5 C 276.5,301.833 276.5,317.167 276.5,332.5C 273.048,335.399 269.382,338.066 265.5,340.5C 265.5,326.167 265.5,311.833 265.5,297.5C 268.833,293.5 272.5,289.833 276.5,286.5 Z"/></g>
<g><path style="opacity:0.947" fill="#56a59b" d="M 54.5,288.5 C 54.5,298.167 54.5,307.833 54.5,317.5C 53.2921,318.234 51.9587,318.567 50.5,318.5C 50.5,309.833 50.5,301.167 50.5,292.5C 52.1942,291.473 53.5275,290.139 54.5,288.5 Z"/></g>
<g><path style="opacity:0.957" fill="#58a799" d="M 50.5,292.5 C 50.5,301.167 50.5,309.833 50.5,318.5C 49.0413,318.433 47.7079,318.766 46.5,319.5C 46.5,311.167 46.5,302.833 46.5,294.5C 47.8333,293.833 49.1667,293.167 50.5,292.5 Z"/></g>
<g><path style="opacity:0.972" fill="#4295ae" d="M 265.5,297.5 C 265.5,311.833 265.5,326.167 265.5,340.5C 264.609,341.11 263.609,341.443 262.5,341.5C 262.5,327.5 262.5,313.5 262.5,299.5C 263.5,298.833 264.5,298.167 265.5,297.5 Z"/></g>
<g><path style="opacity:0.96" fill="#4396ad" d="M 262.5,299.5 C 262.5,313.5 262.5,327.5 262.5,341.5C 260.381,343.4 258.047,345.066 255.5,346.5C 255.5,332.833 255.5,319.167 255.5,305.5C 257.808,303.529 260.142,301.529 262.5,299.5 Z"/></g>
<g><path style="opacity:0.963" fill="#4698aa" d="M 255.5,305.5 C 255.5,319.167 255.5,332.833 255.5,346.5C 251.07,349.048 246.403,351.048 241.5,352.5C 241.5,339.833 241.5,327.167 241.5,314.5C 246.167,311.5 250.833,308.5 255.5,305.5 Z"/></g>
<g><path style="opacity:0.958" fill="#5ba996" d="M 178.5,332.5 C 178.5,344.167 178.5,355.833 178.5,367.5C 173.5,367.5 168.5,367.5 163.5,367.5C 128.82,365.217 97.4862,353.717 69.5,333C 80.83,327.835 88.4967,319.335 92.5,307.5C 118.402,325.132 147.068,333.465 178.5,332.5 Z"/></g>
<g><path style="opacity:0.964" fill="#499ba7" d="M 241.5,314.5 C 241.5,327.167 241.5,339.833 241.5,352.5C 239.75,353.87 237.75,354.87 235.5,355.5C 235.5,342.833 235.5,330.167 235.5,317.5C 237.5,316.5 239.5,315.5 241.5,314.5 Z"/></g>
<g><path style="opacity:0.964" fill="#4b9ca5" d="M 235.5,317.5 C 235.5,330.167 235.5,342.833 235.5,355.5C 234.292,356.234 232.959,356.567 231.5,356.5C 231.5,344.167 231.5,331.833 231.5,319.5C 232.833,318.833 234.167,318.167 235.5,317.5 Z"/></g>
<g><path style="opacity:0.964" fill="#4c9da4" d="M 231.5,319.5 C 231.5,331.833 231.5,344.167 231.5,356.5C 228.061,358.204 224.395,359.538 220.5,360.5C 220.5,348.5 220.5,336.5 220.5,324.5C 224.01,322.656 227.677,320.989 231.5,319.5 Z"/></g>
<g><path style="opacity:0.968" fill="#50a0a1" d="M 220.5,324.5 C 220.5,336.5 220.5,348.5 220.5,360.5C 216.848,361.629 213.182,362.629 209.5,363.5C 209.5,351.5 209.5,339.5 209.5,327.5C 213.123,326.344 216.789,325.344 220.5,324.5 Z"/></g>
<g><path style="opacity:0.97" fill="#52a29f" d="M 209.5,327.5 C 209.5,339.5 209.5,351.5 209.5,363.5C 208.041,363.433 206.708,363.766 205.5,364.5C 205.5,352.5 205.5,340.5 205.5,328.5C 206.959,328.567 208.292,328.234 209.5,327.5 Z"/></g>
<g><path style="opacity:0.969" fill="#53a39d" d="M 205.5,328.5 C 205.5,340.5 205.5,352.5 205.5,364.5C 202.794,364.575 200.127,364.908 197.5,365.5C 197.5,353.833 197.5,342.167 197.5,330.5C 200.218,329.957 202.885,329.291 205.5,328.5 Z"/></g>
<g><path style="opacity:0.968" fill="#56a59b" d="M 197.5,330.5 C 197.5,342.167 197.5,353.833 197.5,365.5C 194.833,365.833 192.167,366.167 189.5,366.5C 189.5,354.833 189.5,343.167 189.5,331.5C 192.167,331.167 194.833,330.833 197.5,330.5 Z"/></g>
<g><path style="opacity:0.972" fill="#58a798" d="M 189.5,331.5 C 189.5,343.167 189.5,354.833 189.5,366.5C 186.615,366.194 183.948,366.527 181.5,367.5C 180.5,367.5 179.5,367.5 178.5,367.5C 178.5,355.833 178.5,344.167 178.5,332.5C 182.198,332.448 185.865,332.114 189.5,331.5 Z"/></g>
</svg>
